:FULLY-SPECIFIED
:FORCE-ALL-JOINTS-BE-3DOF
:DEGREES
34
root 5.98343 16.9011 -28.0765 9.97884 -1.8881 -2.25533
lfemur -20.0646 1.67228 -19.7878
ltibia 33.7327 0 0
lfoot -36.0186 4.25902 0
ltoes 36.1687 0 0
rfemur -16.7957 7.47638 19.5564
rtibia 30.5567 0 0
rfoot -27.3799 -19.198 0
rtoes 15.0569 0 0
lowerback -5.46563 2.56262 -1.01025
upperback -1.90872 3.45598 0.8459
thorax 0.984639 1.7327 1.64523
lowerneck -9.54224 -1.64939 2.66834
upperneck -2.60407 -2.46391 0.736739
head 0.752012 -1.23511 -0.30016
lclavicle -4.64459e-14 -7.12292e-15 0
lhumerus -41.5134 -12.7454 97.1085
lradius 38.7922 0 0
lwrist 5.68683 0 0
lhand -11.3023 5.87626 0
lfingers 7.12502 0 0
lthumb 14.7292 35.3327 0
rclavicle -4.64459e-14 -7.12292e-15 0
rhumerus -40.6313 -5.08265 -88.6382
rradius 39.1226 0 0
rwrist 11.148 0 0
rhand -26.8354 -19.9001 0
rfingers 7.12502 0 0
rthumb -0.261164 -49.8798 0
35
root 5.97626 16.9014 -28.0771 10.0018 -1.89 -2.21199
lfemur -20.0784 1.68083 -19.808
ltibia 33.7107 0 0
lfoot -35.9394 4.26321 0
ltoes 36.012 0 0
rfemur -16.7999 7.4503 19.5317
rtibia 30.5259 0 0
rfoot -27.3473 -19.2108 0
rtoes 14.7617 0 0
lowerback -5.51938 2.54483 -0.931199
upperback -1.88496 3.42935 0.760389
thorax 1.04964 1.71819 1.51554
lowerneck -9.52856 -1.63092 2.70471
upperneck -2.65897 -2.44229 0.797909
head 0.732689 -1.22428 -0.285867
lclavicle -4.61941e-14 -4.7294e-15 0
lhumerus -41.505 -12.8221 97.0598
lradius 39.027 0 0
lwrist 5.84857 0 0
lhand -11.4179 5.59632 0
lfingers 7.12502 0 0
lthumb 14.6179 35.061 0
rclavicle -4.61941e-14 -4.7294e-15 0
rhumerus -40.5659 -5.06702 -88.7679
rradius 39.0763 0 0
rwrist 11.1791 0 0
rhand -26.8136 -19.8944 0
rfingers 7.12502 0 0
rthumb -0.240088 -49.8741 0
36
root 5.96913 16.9015 -28.0778 10.0256 -1.87695 -2.17374
lfemur -20.1012 1.67309 -19.8209
ltibia 33.7015 0 0
lfoot -35.8574 4.26421 0
ltoes 35.874 0 0
rfemur -16.8063 7.39226 19.5132
rtibia 30.4968 0 0
rfoot -27.3152 -19.2078 0
rtoes 14.4027 0 0
lowerback -5.56804 2.52222 -0.843564
upperback -1.86292 3.39584 0.675257
thorax 1.11046 1.70037 1.38064
lowerneck -9.51818 -1.61384 2.74008
upperneck -2.70871 -2.42252 0.859358
head 0.715568 -1.21433 -0.271487
lclavicle -4.49253e-14 -2.88238e-15 0
lhumerus -41.4952 -12.8889 97.0002
lradius 39.2435 0 0
lwrist 5.99353 0 0
lhand -11.51 5.33451 0
lfingers 7.12502 0 0
lthumb 14.5291 34.8057 0
rclavicle -4.49253e-14 -2.88238e-15 0
rhumerus -40.5062 -5.05506 -88.8996
rradius 39.0384 0 0
rwrist 11.1885 0 0
rhand -26.7944 -19.91 0
rfingers 7.12502 0 0
rthumb -0.221556 -49.8897 0
37
root 5.96196 16.9016 -28.0784 10.0473 -1.85579 -2.14198
lfemur -20.1203 1.62423 -19.8232
ltibia 33.6919 0 0
lfoot -35.779 4.29644 0
ltoes 35.742 0 0
rfemur -16.8128 7.3085 19.5023
rtibia 30.4693 0 0
rfoot -27.2779 -19.1874 0
rtoes 13.9881 0 0
lowerback -5.61161 2.49502 -0.747168
upperback -1.84189 3.35572 0.590652
thorax 1.16794 1.67939 1.24064
lowerneck -9.51034 -1.59649 2.7771
upperneck -2.75119 -2.4027 0.91939
head 0.70115 -1.20433 -0.257929
lclavicle -4.17216e-14 -1.2921e-15 0
lhumerus -41.4839 -12.9388 96.9276
lradius 39.4381 0 0
lwrist 6.12105 0 0
lhand -11.5879 5.06425 0
lfingers 7.12502 0 0
lthumb 14.454 34.5409 0
rclavicle -4.17216e-14 -1.2921e-15 0
rhumerus -40.4503 -5.05575 -89.0312
rradius 39.0019 0 0
rwrist 11.1828 0 0
rhand -26.7819 -19.9478 0
rfingers 7.12502 0 0
rthumb -0.209472 -49.9275 0
38
root 5.9547 16.9018 -28.079 10.0655 -1.8335 -2.11501
lfemur -20.1293 1.53113 -19.8164
ltibia 33.6748 0 0
lfoot -35.7063 4.37204 0
ltoes 35.6054 0 0
rfemur -16.8193 7.20329 19.4966
rtibia 30.4443 0 0
rfoot -27.2343 -19.147 0
rtoes 13.5333 0 0
lowerback -5.6507 2.46465 -0.645301
upperback -1.82088 3.31102 0.50623
thorax 1.22322 1.65626 1.09721
lowerneck -9.50387 -1.5778 2.81712
upperneck -2.78847 -2.38148 0.976632
head 0.688563 -1.19366 -0.245766
lclavicle -3.61311e-14 4.72617e-16 0
lhumerus -41.4718 -12.9714 96.8437
lradius 39.6154 0 0
lwrist 6.23616 0 0
lhand -11.6656 4.75759 0
lfingers 7.12502 0 0
lthumb 14.3792 34.2396 0
rclavicle -3.61311e-14 4.72617e-16 0
rhumerus -40.3957 -5.0702 -89.1625
rradius 38.9628 0 0
rwrist 11.1696 0 0
rhand -26.7761 -20.0021 0
rfingers 7.12502 0 0
rthumb -0.203877 -49.9818 0
39
root 5.94745 16.902 -28.0795 10.0831 -1.80502 -2.09065
lfemur -20.14 1.42057 -19.8052
ltibia 33.6623 0 0
lfoot -35.6332 4.45685 0
ltoes 35.4744 0 0
rfemur -16.8278 7.07121 19.494
rtibia 30.4225 0 0
rfoot -27.1908 -19.0871 0
rtoes 13.0348 0 0
lowerback -5.6855 2.43138 -0.539397
upperback -1.80035 3.26217 0.421695
thorax 1.27579 1.6312 0.950861
lowerneck -9.4992 -1.55923 2.85769
upperneck -2.82366 -2.36051 1.03248
head 0.676916 -1.18315 -0.234186
lclavicle -2.90167e-14 2.24748e-15 0
lhumerus -41.4592 -12.9943 96.7513
lradius 39.7812 0 0
lwrist 6.34148 0 0
lhand -11.738 4.43396 0
lfingers 7.12502 0 0
lthumb 14.3094 33.9209 0
rclavicle -2.90167e-14 2.24748e-15 0
rhumerus -40.3437 -5.08875 -89.2954
rradius 38.9272 0 0
rwrist 11.1444 0 0
rhand -26.7725 -20.0697 0
rfingers 7.12502 0 0
rthumb -0.200393 -50.0494 0
40
root 5.94029 16.9019 -28.0802 10.1031 -1.76532 -2.06671
lfemur -20.1644 1.31931 -19.7941
ltibia 33.6665 0 0
lfoot -35.5534 4.51672 0
ltoes 35.3591 0 0
rfemur -16.8406 6.90683 19.4919
rtibia 30.4044 0 0
rfoot -27.1535 -19.0085 0
rtoes 12.489 0 0
lowerback -5.71621 2.39547 -0.430886
upperback -1.78071 3.20966 0.33675
thorax 1.32512 1.60442 0.802104
lowerneck -9.49674 -1.54226 2.89632
upperneck -2.85991 -2.34144 1.08833
head 0.665321 -1.17362 -0.222378
lclavicle -2.12418e-14 3.86818e-15 0
lhumerus -41.4461 -13.0154 96.6533
lradius 39.9412 0 0
lwrist 6.43965 0 0
lhand -11.8 4.11277 0
lfingers 7.12502 0 0
lthumb 14.2498 33.6039 0
rclavicle -2.12418e-14 3.86818e-15 0
rhumerus -40.2953 -5.10169 -89.4321
rradius 38.9015 0 0
rwrist 11.1027 0 0
rhand -26.7665 -20.1472 0
rfingers 7.12502 0 0
rthumb -0.194645 -50.127 0
41
root 5.93329 16.9014 -28.0812 10.1284 -1.70932 -2.04101
lfemur -20.2142 1.25411 -19.7876
ltibia 33.6994 0 0
lfoot -35.4607 4.51749 0
ltoes 35.2696 0 0
rfemur -16.8596 6.70473 19.4881
rtibia 30.3905 0 0
rfoot -27.1287 -18.9119 0
rtoes 11.8923 0 0
lowerback -5.74304 2.35718 -0.321204
upperback -1.7624 3.15393 0.2511
thorax 1.3707 1.57614 0.65145
lowerneck -9.49691 -1.52835 2.93053
upperneck -2.90035 -2.3259 1.14557
head 0.652888 -1.16587 -0.209533
lclavicle -1.36693e-14 5.17043e-15 0
lhumerus -41.4328 -13.0423 96.5526
lradius 40.1013 0 0
lwrist 6.5333 0 0
lhand -11.8464 3.81345 0
lfingers 7.12502 0 0
lthumb 14.205 33.3078 0
rclavicle -1.36693e-14 5.17043e-15 0
rhumerus -40.2517 -5.09933 -89.5746
rradius 38.892 0 0
rwrist 11.04 0 0
rhand -26.7537 -20.2316 0
rfingers 7.12502 0 0
rthumb -0.182255 -50.2113 0
42
root 5.92654 16.9004 -28.0827 10.1619 -1.63199 -2.01135
lfemur -20.3015 1.25176 -19.7902
ltibia 33.7732 0 0
lfoot -35.3488 4.425 0
ltoes 35.2161 0 0
rfemur -16.8872 6.45948 19.4801
rtibia 30.3814 0 0
rfoot -27.1227 -18.798 0
rtoes 11.2411 0 0
lowerback -5.76619 2.3168 -0.211781
upperback -1.74586 3.09544 0.164447
thorax 1.41199 1.54658 0.49941
lowerneck -9.50013 -1.51895 2.95787
upperneck -2.9481 -2.31555 1.20561
head 0.638726 -1.16072 -0.194838
lclavicle -7.16236e-15 5.9899e-15 0
lhumerus -41.4194 -13.0827 96.4522
lradius 40.2673 0 0
lwrist 6.62505 0 0
lhand -11.8723 3.55541 0
lfingers 7.12502 0 0
lthumb 14.1801 33.0514 0
rclavicle -7.16236e-15 5.9899e-15 0
rhumerus -40.2141 -5.07199 -89.7251
rradius 38.905 0 0
rwrist 10.9518 0 0
rhand -26.7295 -20.3194 0
rfingers 7.12502 0 0
rthumb -0.158847 -50.2991 0
43
root 5.92012 16.8987 -28.0848 10.2066 -1.52826 -1.97555
lfemur -20.438 1.339 -19.8065
ltibia 33.9 0 0
lfoot -35.2116 4.20509 0
ltoes 35.2088 0 0
rfemur -16.9253 6.16566 19.4656
rtibia 30.3778 0 0
rfoot -27.1417 -18.6675 0
rtoes 10.5318 0 0
lowerback -5.78587 2.27459 -0.104052
upperback -1.73151 3.03465 0.0764956
thorax 1.44849 1.51594 0.346495
lowerneck -9.50682 -1.51554 2.97584
upperneck -3.00629 -2.31202 1.26983
head 0.621946 -1.159 -0.177483
lclavicle -2.5842e-15 6.16232e-15 0
lhumerus -41.4063 -13.1444 96.3548
lradius 40.4448 0 0
lwrist 6.71755 0 0
lhand -11.8725 3.35808 0
lfingers 7.12502 0 0
lthumb 14.1799 32.8541 0
rclavicle -2.5842e-15 6.16232e-15 0
rhumerus -40.1835 -5.00997 -89.8855
rradius 38.9467 0 0
rwrist 10.8337 0 0
rhand -26.6893 -20.4074 0
rfingers 7.12502 0 0
rthumb -0.120043 -50.3871 0
44
root 5.91396 16.8964 -28.0875 10.2663 -1.3962 -1.925
lfemur -20.6076 1.49715 -19.8441
ltibia 34.0481 0 0
lfoot -35.0761 3.87071 0
ltoes 35.267 0 0
rfemur -16.9776 5.8014 19.4342
rtibia 30.3794 0 0
rfoot -27.1961 -18.5009 0
rtoes 9.74901 0 0
lowerback -5.80698 2.22686 -0.00255856
upperback -1.72069 2.96689 -0.0177041
thorax 1.48153 1.48193 0.189943
lowerneck -9.51806 -1.51732 2.98665
upperneck -3.0736 -2.31457 1.34029
head 0.603112 -1.16032 -0.157193
lclavicle 3.52059e-17 5.5538e-15 0
lhumerus -41.3965 -13.2315 96.2581
lradius 40.6349 0 0
lwrist 6.81043 0 0
lhand -11.8417 3.2279 0
lfingers 7.12502 0 0
lthumb 14.2096 32.7218 0
rclavicle 3.52059e-17 5.5538e-15 0
rhumerus -40.1622 -4.91531 -90.0633
rradius 39.0211 0 0
rwrist 10.6732 0 0
rhand -26.6313 -20.501 0
rfingers 7.12502 0 0
rthumb -0.0640297 -50.4807 0
45
root 5.90795 16.8937 -28.0907 10.3398 -1.23966 -1.85879
lfemur -20.7944 1.69619 -19.9014
ltibia 34.1963 0 0
lfoot -34.9568 3.45653 0
ltoes 35.3881 0 0
rfemur -17.0435 5.36423 19.3846
rtibia 30.3855 0 0
rfoot -27.2837 -18.2913 0
rtoes 8.89076 0 0
lowerback -5.83097 2.17215 0.0924584
upperback -1.71345 2.89019 -0.119539
thorax 1.51203 1.44359 0.0283779
lowerneck -9.53383 -1.52272 2.99322
upperneck -3.14681 -2.32151 1.41645
head 0.583202 -1.16383 -0.134598
lclavicle 1.45307e-15 4.26575e-15 0
lhumerus -41.391 -13.3386 96.1588
lradius 40.8329 0 0
lwrist 6.90122 0 0
lhand -11.7826 3.14975 0
lfingers 7.12502 0 0
lthumb 14.2665 32.6396 0
rclavicle 1.45307e-15 4.26575e-15 0
rhumerus -40.1498 -4.79728 -90.2589
rradius 39.1238 0 0
rwrist 10.4703 0 0
rhand -26.5589 -20.6049 0
rfingers 7.12502 0 0
rthumb 0.00590737 -50.5846 0
